<?xml version="1.0" encoding="UTF-8"?>
<!-- Generator: Adobe Illustrator 23.0.4, SVG Export Plug-In . SVG Version: 6.00 Build 0)  -->
<svg version="1.1" id="Layer_1" xmlns="http://www.w3.org/2000/svg" xmlns:xlink="http://www.w3.org/1999/xlink" x="0px" y="0px" viewBox="0 0 1599.66 600" style="enable-background:new 0 0 1599.66 600;" xml:space="preserve">
<style type="text/css">
	.st0{fill:#89B7BF;}
</style>
<g>
	<path d="M970.45,185.28c-14.9-31.95-25.33-4.95-25.33-4.95c-9.98,27.73-72.58,98.23-85.01,110.69   c-52.25,45.33-34.16,17.08-38.35-3.22c0,0,2.21-36.88,12.57-45.24c0,0,5.5,2.46,9.75-19.93c0,0,12.62-29.11-21.08-34.58   c0,0-23.03-15.75-33.47,28.78c0,0-19.7,84.18,7.18,122.65c0,0,13.89,25.29,84.51-43.59l-0.14-0.19   c24.64-24.25,61.93-68.05,61.93-68.05c39.5,72.42-20.73,91.91-20.73,91.91c-22.53,14.69,0.39,18.12,0.39,18.12   c92.67,1.93,100.1-54.09,100.1-54.09C1024.98,243.35,970.45,185.28,970.45,185.28"/>
	<path d="M621.75,325.03c0,0-6.95-4.6-6.48-25.4c0,0,1.93-36.14,26.46-65.06c0,0,6.83-8.67,12.44-9.75   c1.84-0.35,4.88,2.39,6.25,13.43c0.34,2.71-7.47,3.29-4.62,11.91c0,0,13.08,33.06,40.58,18.14c-1.15,6.78-2.39,13.61-3.68,20.48   C678.35,308.66,648.23,343.05,621.75,325.03 M738.72,15.3c0,0-30.12-38-25.01,5.79c0,0,4.09,91.36-10.96,205.04   c-1.72-4.44-4.05-8.94-7.24-13.4c0,0-26.25-35.01-55.7-25.29c0,0-37.54,11.82-59.29,68.53c0,0-15.4,39.2-11.01,68.69   c0,0-1.45,77.52,92.9,22.74c0,0,9.98-6.07,21.7-17.96c-2.25,9.68-5.96,16.02-6.34,26c0,0-3.36,20.46,6.02,25.59   c3.54,2,7.38-0.74,15.72-20.62c0,0,67.08-172.12,70.67-243.16C770.17,117.25,793.71,81.97,738.72,15.3"/>
	<path d="M889.6,99.32c1.5-13.84-7.01-26.07-18.97-27.33c-11.59-1.22-22.14,8.3-24.09,21.49c-1.24,5.66-1.24,10.14-1.56,16.25   c-0.35,5.42-7.26,24.78-1.17,26.34c6.05,1.59,24.81-10.09,33.86-16.92C883.99,115.3,888.65,108.03,889.6,99.32"/>
	<path d="M1274.37,174.45c0,0-64.32,95.61-64.09,127.43c0,0-2.67,29.4,30.71,28.25c0,0,33.66-1.98,57.79-21.91   c0,0,15.5-15.43,24.55-17.22c0,0,21.89,2.28,14.85-26.87c0,0-7.27-32.92-15.49-45.43c0,0-7.4-14.65-16.55-9.06   c0,0-8.64,3.98-5.75,19.47c0,0-0.78,0.57,3.68,13.22c0,0,10.39,31.91,4.28,32.76c0,0-2.9,0.37-6.3,3.57   c-1.98,1.84-5.84,6.09-10.02,9.06c0,0-29.38,19.75-22.81-8.16c0,0,3.95-16.74,8.09-27.13c0,0,16.41-45.93,34.49-70.51   c0,0,17.61-21.1-3.86-19.45c-1.33,0.07-4.55,1.13-6.11,0.25C1301.81,162.73,1290.5,153.09,1274.37,174.45"/>
	<path d="M1139.99,216.38L1139.99,216.38c-11.38-7.17-24.25-33.68-14.23-46.25c4.42-5.47,13.34-10.35,12-18.09   c-2.9-17.22-32.88,0.07-38.44,20.53c-11.15,30.99-44.74,50.81-44.74,50.81c-5.43,4.88-6.74,17.52-6.74,17.52   c-1.06,22.87,13.54,6.76,13.54,6.76c20.94-16.21,35.82-27.75,35.82-27.75c39.5,72.42-20.78,91.89-20.78,91.89   c-7.95,3.06-9.86,6.71-9.88,11.33c0.18,6.25,10.3,6.78,10.3,6.78c92.67,1.93,100.1-54.07,100.1-54.07   C1181.21,251.01,1155.37,227.14,1139.99,216.38"/>
	<path d="M443.12,348.64c-2.85,4.55-5.56,9.7-12.97,14.44c0,0-37.77,23.15-36.44-9.52c0,0,1.26-18.14,7.49-34.97   c0,0,17.4-44.23,44.37-70c2.46-2.51,4.62-2.76,6-0.87c3.77,5.13,4.41,11.01,7.27,15.82c0.74,1.26,1.61,2.58,2.48,3.86   c-3.22,16.57-11.49,48.03-12.92,71.82C447.4,342.48,445.05,345.56,443.12,348.64 M542.71,328.2c0,0-0.16-1.06-1.13-1.95   c-2.51-1.72-14.74,3.82-26.87,11.13c-1.98,1.15-3.7,2.16-5.33,3.06c-4.46,2.78-8.76,5.54-10.48,7.04c0,0-7.82,6.25-6.99-7.77   c0.04-0.18,0.04-0.34,0.04-0.55l0,0c0.14-3.12,0.71-7.06,0.92-11.33c0,0,10.71-42.81,15.36-54.81c0,0,2.53-11.29,6.53-24.16   c0,0,18.3-19.01-15.27-25.15c0,0-16.05-39.43-33.31,22.67v-0.02c-1.2-6.39-7.06-16.21-16.07-20.12c-1.82-1.03-4.37-1.79-7.91-2.09   c-1.33-0.14-2.25,0.25-5.19-0.18c0,0-16.07-5.52-33.29,16.02c-18.35,20.14-71.79,84.23-59.59,137.89c0,0,6.62,27.79,31.27,27.61   c0,0,32.67,0.39,57.33-22.99c0,0,7.4-6.55,15.31-16.23c0.32,3.31,0.83,6.94,1.79,10.51c0.14,0.71,0.32,1.4,0.51,2.07   c0,0,0.9,6.23,6,10.92c3.75,3.47,9.77,6.09,19.43,4.78c0.94-0.19,1.95-0.41,2.99-0.74c0,0,34.55-8.37,33.7-23.06   c-0.42-7.24,2.21-8.69,2.21-8.69s2.21-1.22,1.43-3.77C516.09,358.27,543.65,339.86,542.71,328.2"/>
	<path d="M179.57,169.28c-2.51-4.6-8.09-2.02-21.47,19.59c0,0-114.35,193.18-137.43,284.79c0,0-25.38,63.27,8.6,86   c0,0,7.56,11.98,16.83,14.14c2.58,13.73,7.45,26.32,16.87,22.02c3.29-1.52,3.77-12.74,3.43-23.68l0.16,0.02   c-0.23-9.1,0.64-17.1,1.79-23.45c0.74-2.57,1.47-5.26,2.16-8.35c0,0,0.51-2,1.45-5.68c0.39-1.2,0.67-1.82,0.67-1.82l-0.23,0.05   c10.46-41.27,62.85-243.69,104.76-329.37C177.16,203.55,186.86,182.52,179.57,169.28"/>
	<path d="M1564.4,308.13c-15.49-9.52-58.16-95.36-58.16-95.36c-9.89-14.85-26.85,3.17-26.85,3.17c-11.5,8.83-27.31,36.51-35.5,53.08   c-10.89,18.6-8.09-5.66-8.09-5.66c0.55-6.62,2.53-17.1,9.88-21.95c0,0,5.7,4.74,12.05-17.1c0,0,12.05-28.67-17.7-36.42   c0,0-21.47-17.91-36.05,25.5c0,0-20.14,62.85-12.09,102.03c0,0,3.73,45.93,42.58,9.95c3.86-3.59,8-9.15,12.37-15.33   c7.91-12.32,10.16-16.81,15.72-29.66c9.52-22.28,26.25-42.44,29.24-45.77c-2.16,26.07,28,95.04,28,95.04   c10.48,35.19,27.54,33.91,27.54,33.91C1635.21,366.53,1564.4,308.13,1564.4,308.13"/>
	<g>
		<path class="st0" d="M225,514.97c2.62-3.19,5.1-8.12,18.48-11.36c0,0,454.82-154.51,1059.9-123.59c0,0,34.35-1.24,25.01,13.77    c-5.47,8.81-15.68,9.33-35.08,10.37c0,0-6.57,1.01-32.32,0.73c0,0,61.89,24.02-182.37,19.04c0,0,21.56,21.98-68.26,15.66    c0,0-250.47-11.4-756.74,80.37C253.62,519.96,213.8,528.53,225,514.97"/>
		<path class="st0" d="M1369.49,383.58c18.53,1.15,39.31,1.43,68.14,4.18c14.99,1.45,38.07,1.45,41.34,11.17    c2.99,8.92-8.28,18.07-28.41,21.98c-10.21,1.98-16.65,3.66-25.84,3.33c-10.9-0.39-34.21,0.46-34.85-12.09    c-0.51-7.86-15.72-7.79-25.89-8.18c-20.37-0.8-18.3-6.55-13.84-13.5C1352.76,386.25,1358.37,383.49,1369.49,383.58"/>
	</g>
	<path d="M353.33,493.17c0,0-98.48-147.98-108.51-179.43c0,0-4.39-11.93-10.42-18.78c6.32,0,13.45-0.23,21.59-0.71   c0,0,52.23-0.99,74.3-41.34c6.05-11.06,17.72-49.06-27.36-96.76c0,0-56.9-67.61-186.21-76.19c0,0-34.9-16.51-101.47,38.62   c0,0-25.04,19.93-10.94,24.62c6.41,2.09,10.9,2.09,16.78,0.41c0,0,108.05-36.57,242.26,40.56c0,0,52.97,33.47,20.02,66.85   c0,0-13.08,14.51-46.41,19.79c0,0-7.96,1.47-23.59,3.12c0,0-7.77,0.67-18.44,1.17c0,0-13.52-0.11-14.94,3.89   c-0.62,2.46,1.7,3.38,9.01,6.92c0.05,0-0.05-0.02,0,0c-14.02,1.56-19.27,3.59-22.58,7.26c0,0-2.71,3.24-1.33,6.85   c9.36,24.81,52.05,126.86,148.6,206.95c0,0,55.5,43.38,67.84,32.64C385.35,536.33,371.44,518.46,353.33,493.17"/>
</g>
</svg>