<svg id="Layer_1" data-name="Layer 1" xmlns="http://www.w3.org/2000/svg" viewBox="0 0 1858.86 449.05"><defs><style>.cls-1{fill:#53565a;}</style></defs><title>RH-Radisson-Hotels_RGB-GREY</title><path class="cls-1" d="M118,503.71q10-8.85,10-23.62v-.66q0-16.4-10.49-24.61t-29.21-8.2H38.13v66H89.32Q108,512.57,118,503.71Z" transform="translate(0 -284.47)"/><path class="cls-1" d="M354.12,630.69v-92.2H260.94v92.2H210.4V401h50.54V491.9h93.18V401h39.63A224.56,224.56,0,0,0,0,401H94.58q43.64,0,66.94,23.3Q181.2,444,181.2,476.81v.65q0,27.9-13.61,45.45A78.88,78.88,0,0,1,132,548.66l56.11,82H129l-49.22-73.5H40.12v73.5H8.24a224.43,224.43,0,0,0,377.27,0Z" transform="translate(0 -284.47)"/><rect class="cls-1" x="507.62" y="257.18" width="1348.26" height="5.19"/><path class="cls-1" d="M770.09,350.61l28.39,68.87H741.93ZM754.4,303.07,672.57,499.38h37.24l18.74-46.07h83.33l18.46,46.07h38.29L786.8,303.07Z" transform="translate(0 -284.47)"/><path class="cls-1" d="M1019.32,402.19c0,37.41-24.58,62.54-61.15,62.54H924.33V339.08h33.84c36,0,61.15,25.95,61.15,63.11m-61.15-97.76h-70v195h70c57.26,0,98.82-41.11,98.82-97.75,0-56.33-41.56-97.2-98.82-97.2" transform="translate(0 -284.47)"/><path class="cls-1" d="M1627.27,402.17c0,37.37-25.51,65.56-59.33,65.56-34.13,0-59.86-28.41-59.86-66.1,0-37.37,25.51-65.55,59.34-65.55,34.12,0,59.85,28.42,59.85,66.09m-59.33-101c-55.59,0-97.53,43.43-97.53,101,0,57.29,41.71,100.48,97,100.48,55.6,0,97.52-43.43,97.52-101,0-57.28-41.69-100.47-97-100.47" transform="translate(0 -284.47)"/><path class="cls-1" d="M623.89,368.92c0,18.57-13.56,30.11-35.4,30.11H543.73V339.08h44.51c23,0,35.65,10.59,35.65,29.84M660.53,367c0-38.59-26.7-62.58-69.69-62.58H507.63v195h36.1V432.86h36.9l44.75,66.52h42.7L618.3,426.22c27.26-8.88,42.23-29.82,42.23-59.21" transform="translate(0 -284.47)"/><rect class="cls-1" x="1086.96" y="19.96" width="36.11" height="194.95"/><path class="cls-1" d="M1233.89,384.65c-35.33-8.85-41.62-15.11-41.62-28.28,0-12.46,11.08-20.84,27.6-20.84,15.87,0,31.63,6.29,48.15,19.19l1.74,1.36,19.44-28.7-1.41-1.2c-19.58-16.47-41.63-24.48-67.4-24.48-37.83,0-64.24,23.72-64.24,57.68,0,36.39,22.8,49.27,62.18,59.24,33.83,8.19,39.55,15.09,39.55,27.45,0,13.7-11.58,22.2-30.21,22.2-20.58,0-37.36-7.26-56.11-24.26l-1.61-1.48-21.82,27.18,1.4,1.3c21.74,20.34,48.48,31.1,77.35,31.1,40.76,0,67.1-23.28,67.1-59.32,0-30.42-17.41-47.26-60.09-58.14" transform="translate(0 -284.47)"/><path class="cls-1" d="M1391.28,384.65c-35.33-8.85-41.62-15.11-41.62-28.28,0-12.46,11.09-20.84,27.59-20.84,15.88,0,31.63,6.29,48.16,19.19l1.73,1.36,19.45-28.7-1.41-1.2c-19.58-16.47-41.62-24.48-67.41-24.48-37.82,0-64.23,23.72-64.23,57.68,0,36.39,22.8,49.27,62.18,59.24,33.83,8.19,39.54,15.09,39.54,27.45,0,13.7-11.57,22.2-30.2,22.2-20.56,0-37.35-7.26-56.11-24.26l-1.61-1.48-21.82,27.18,1.4,1.3c21.72,20.34,48.48,31.1,77.35,31.1,40.77,0,67.1-23.28,67.1-59.32,0-30.42-17.41-47.26-60.09-58.14" transform="translate(0 -284.47)"/><polygon class="cls-1" points="1820.3 19.97 1820.3 147.73 1726.47 20.8 1725.85 19.97 1693.1 19.97 1693.1 214.92 1728.68 214.92 1728.68 83.34 1825.38 214.08 1826 214.92 1855.88 214.92 1855.88 19.97 1820.3 19.97"/><rect class="cls-1" x="507.72" y="257.02" width="1348.09" height="5.18"/><path class="cls-1" d="M506.81,588.07h22.46v53.14h61V588.07h22.46V715.91H590.27V662h-61v53.88H506.81Z" transform="translate(0 -284.47)"/><path class="cls-1" d="M749,652.35V652c0-36,27.76-66.11,67-66.11s66.66,29.77,66.66,65.74V652c0,36-27.76,66.11-67,66.11S749,688.33,749,652.35Zm110.12,0V652c0-24.84-18.08-45.29-43.46-45.29s-43.1,20.09-43.1,44.92V652c0,24.84,18.08,45.29,43.46,45.29S859.08,677.19,859.08,652.35Z" transform="translate(0 -284.47)"/><path class="cls-1" d="M1053,608.89h-40.72V588.07h103.91v20.82h-40.73v107H1053Z" transform="translate(0 -284.47)"/><path class="cls-1" d="M1269.32,588.07h94.78v20.09h-72.32V641.4h64.1v20.27h-64.1v34.15H1365v20.09h-95.7Z" transform="translate(0 -284.47)"/><path class="cls-1" d="M1533,588.07h22.46V695.45h67.21v20.46H1533Z" transform="translate(0 -284.47)"/><path class="cls-1" d="M1759.88,697.28l13.52-16.07c12.23,10.59,24.65,16.62,40.36,16.62,13.87,0,22.64-6.58,22.64-16.07v-.37c0-9.13-5.11-14.06-28.85-19.54-27.21-6.57-42.56-14.61-42.56-38.17v-.36c0-21.92,18.27-37.08,43.65-37.08,18.63,0,33.42,5.67,46.39,16.08l-12.06,17c-11.5-8.58-23-13.15-34.69-13.15-13.15,0-20.82,6.76-20.82,15.16v.36c0,9.86,5.84,14.25,30.49,20.09,27,6.58,40.91,16.25,40.91,37.44v.36c0,23.93-18.81,38.17-45.65,38.17A78.78,78.78,0,0,1,1759.88,697.28Z" transform="translate(0 -284.47)"/></svg>